HIERARCHY
ROOT Hips
{
	OFFSET 0.000000 121.760803 0.000000
	CHANNELS 6 Xposition Yposition Zposition Xrotation Yrotation Zrotation 
	JOINT Spine
	{
		OFFSET 0.072000 7.257294 -0.789700
		CHANNELS 3 Xrotation Yrotation Zrotation
		JOINT Spine1
		{
			OFFSET 0.000000 12.508769 -0.658067
			CHANNELS 3 Xrotation Yrotation Zrotation
			JOINT Spine1_split
			{
				OFFSET 0.000000 12.508769 -0.658067
				CHANNELS 3 Xrotation Yrotation Zrotation
				JOINT Spine2
				{
					OFFSET 0.000000 12.508769 -0.658067
					CHANNELS 3 Xrotation Yrotation Zrotation
					JOINT Neck
					{
						OFFSET 0.000000 14.033295 7.520400
						CHANNELS 3 Xrotation Yrotation Zrotation
						JOINT Head
						{
							OFFSET 0.000000 8.198502 5.703100
							CHANNELS 3 Xrotation Yrotation Zrotation
							JOINT HeadTop_End
							{
								OFFSET 0.000000 17.760803 13.332701
								CHANNELS 3 Xrotation Yrotation Zrotation
								End Site
								{
									OFFSET 0.000000 0.000000 0.000000
								}
							}
						}
					}
					JOINT LeftShoulder
					{
						OFFSET 6.292450 5.785301 -0.669000
						CHANNELS 3 Xrotation Yrotation Zrotation
						JOINT LeftShoulder_split
						{
							OFFSET 6.292450 5.785301 -0.669000
							CHANNELS 3 Xrotation Yrotation Zrotation
							JOINT LeftArm
							{
								OFFSET 13.907140 -6.093903 1.965100
								CHANNELS 3 Xrotation Yrotation Zrotation
								JOINT LeftForeArm
								{
									OFFSET 34.140198 0.000000 0.000000
									CHANNELS 3 Xrotation Yrotation Zrotation
									JOINT LeftHand
									{
										OFFSET 40.960209 0.000000 0.000000
										CHANNELS 3 Xrotation Yrotation Zrotation
										JOINT LeftHandThumb1
										{
											OFFSET 10.006996 -7.170425 9.573125
											CHANNELS 3 Xrotation Yrotation Zrotation
											JOINT LeftHandThumb2
											{
												OFFSET 1.835007 -1.059448 1.059443
												CHANNELS 3 Xrotation Yrotation Zrotation
												JOINT LeftHandThumb3
												{
													OFFSET 2.112267 -1.219513 1.219518
													CHANNELS 3 Xrotation Yrotation Zrotation
													JOINT LeftHandThumb4
													{
														OFFSET 4.843811 -2.796570 2.796576
														CHANNELS 3 Xrotation Yrotation Zrotation
														End Site
														{
															OFFSET 0.000000 0.000000 0.000000
														}
													}
												}
											}
										}
										JOINT LeftHandIndex1
										{
											OFFSET 18.389847 -0.922348 4.596882
											CHANNELS 3 Xrotation Yrotation Zrotation
											JOINT LeftHandIndex2
											{
												OFFSET 4.711273 0.000000 0.000000
												CHANNELS 3 Xrotation Yrotation Zrotation
												JOINT LeftHandIndex3
												{
													OFFSET 2.886131 0.000000 0.000000
													CHANNELS 3 Xrotation Yrotation Zrotation
													JOINT LeftHandIndex4
													{
														OFFSET 6.145912 0.000000 0.000000
														CHANNELS 3 Xrotation Yrotation Zrotation
														End Site
														{
															OFFSET 0.000000 0.000000 0.000000
														}
													}
												}
											}
										}
										JOINT LeftHandMiddle1
										{
											OFFSET 18.013008 0.000000 0.000000
											CHANNELS 3 Xrotation Yrotation Zrotation
											JOINT LeftHandMiddle2
											{
												OFFSET 4.946693 0.000000 0.000000
												CHANNELS 3 Xrotation Yrotation Zrotation
												JOINT LeftHandMiddle3
												{
													OFFSET 3.342232 0.000000 0.000000
													CHANNELS 3 Xrotation Yrotation Zrotation
													JOINT LeftHandMiddle4
													{
														OFFSET 4.461754 0.000000 0.000000
														CHANNELS 3 Xrotation Yrotation Zrotation
														End Site
														{
															OFFSET 0.000000 0.000000 0.000000
														}
													}
												}
											}
										}
										JOINT LeftHandRing1
										{
											OFFSET 15.849892 -0.102921 -4.126150
											CHANNELS 3 Xrotation Yrotation Zrotation
											JOINT LeftHandRing2
											{
												OFFSET 3.527054 0.000000 0.000000
												CHANNELS 3 Xrotation Yrotation Zrotation
												JOINT LeftHandRing3
												{
													OFFSET 2.961098 0.000000 0.000000
													CHANNELS 3 Xrotation Yrotation Zrotation
													JOINT LeftHandRing4
													{
														OFFSET 4.927200 0.000000 0.000000
														CHANNELS 3 Xrotation Yrotation Zrotation
														End Site
														{
															OFFSET 0.000000 0.000000 0.000000
														}
													}
												}
											}
										}
										JOINT LeftHandPinky1
										{
											OFFSET 12.791824 -0.832031 -6.799156
											CHANNELS 3 Xrotation Yrotation Zrotation
											JOINT LeftHandPinky2
											{
												OFFSET 3.327133 0.000000 0.000000
												CHANNELS 3 Xrotation Yrotation Zrotation
												JOINT LeftHandPinky3
												{
													OFFSET 3.014900 0.000000 0.000000
													CHANNELS 3 Xrotation Yrotation Zrotation
													JOINT LeftHandPinky4
													{
														OFFSET 5.847786 0.000000 0.000000
														CHANNELS 3 Xrotation Yrotation Zrotation
														End Site
														{
															OFFSET 0.000000 0.000000 0.000000
														}
													}
												}
											}
										}
									}
								}
							}
						}
					}
					JOINT RightShoulder
					{
						OFFSET -6.292450 5.785301 -0.669000
						CHANNELS 3 Xrotation Yrotation Zrotation
						JOINT RightShoulder_split
						{
							OFFSET -6.292450 5.785301 -0.669000
							CHANNELS 3 Xrotation Yrotation Zrotation
							JOINT RightArm
							{
								OFFSET -13.907140 -6.093903 1.965100
								CHANNELS 3 Xrotation Yrotation Zrotation
								JOINT RightForeArm
								{
									OFFSET -34.140198 0.000000 0.000000
									CHANNELS 3 Xrotation Yrotation Zrotation
									JOINT RightHand
									{
										OFFSET -40.960209 0.000000 0.000000
										CHANNELS 3 Xrotation Yrotation Zrotation
										JOINT RightHandThumb1
										{
											OFFSET -10.007050 -7.170456 9.573117
											CHANNELS 3 Xrotation Yrotation Zrotation
											JOINT RightHandThumb2
											{
												OFFSET -1.835007 -1.059448 1.059443
												CHANNELS 3 Xrotation Yrotation Zrotation
												JOINT RightHandThumb3
												{
													OFFSET -2.112267 -1.219513 1.219518
													CHANNELS 3 Xrotation Yrotation Zrotation
													JOINT RightHandThumb4
													{
														OFFSET -4.843834 -2.796585 2.796590
														CHANNELS 3 Xrotation Yrotation Zrotation
														End Site
														{
															OFFSET 0.000000 0.000000 0.000000
														}
													}
												}
											}
										}
										JOINT RightHandIndex1
										{
											OFFSET -18.389870 -0.922424 4.596786
											CHANNELS 3 Xrotation Yrotation Zrotation
											JOINT RightHandIndex2
											{
												OFFSET -4.711273 0.000000 0.000000
												CHANNELS 3 Xrotation Yrotation Zrotation
												JOINT RightHandIndex3
												{
													OFFSET -2.886131 0.000000 0.000000
													CHANNELS 3 Xrotation Yrotation Zrotation
													JOINT RightHandIndex4
													{
														OFFSET -6.145920 0.000000 0.000000
														CHANNELS 3 Xrotation Yrotation Zrotation
														End Site
														{
															OFFSET 0.000000 0.000000 0.000000
														}
													}
												}
											}
										}
										JOINT RightHandMiddle1
										{
											OFFSET -18.013008 0.000000 0.000000
											CHANNELS 3 Xrotation Yrotation Zrotation
											JOINT RightHandMiddle2
											{
												OFFSET -4.946693 0.000000 0.000000
												CHANNELS 3 Xrotation Yrotation Zrotation
												JOINT RightHandMiddle3
												{
													OFFSET -3.342232 0.000000 0.000000
													CHANNELS 3 Xrotation Yrotation Zrotation
													JOINT RightHandMiddle4
													{
														OFFSET -4.461754 0.000000 0.000000
														CHANNELS 3 Xrotation Yrotation Zrotation
														End Site
														{
															OFFSET 0.000000 0.000000 0.000000
														}
													}
												}
											}
										}
										JOINT RightHandRing1
										{
											OFFSET -15.849876 -0.102936 -4.126237
											CHANNELS 3 Xrotation Yrotation Zrotation
											JOINT RightHandRing2
											{
												OFFSET -3.527054 0.000000 0.000000
												CHANNELS 3 Xrotation Yrotation Zrotation
												JOINT RightHandRing3
												{
													OFFSET -2.961098 0.000000 0.000000
													CHANNELS 3 Xrotation Yrotation Zrotation
													JOINT RightHandRing4
													{
														OFFSET -4.927200 0.000000 0.000000
														CHANNELS 3 Xrotation Yrotation Zrotation
														End Site
														{
															OFFSET 0.000000 0.000000 0.000000
														}
													}
												}
											}
										}
										JOINT RightHandPinky1
										{
											OFFSET -12.791786 -0.832077 -6.799222
											CHANNELS 3 Xrotation Yrotation Zrotation
											JOINT RightHandPinky2
											{
												OFFSET -3.327133 0.000000 0.000000
												CHANNELS 3 Xrotation Yrotation Zrotation
												JOINT RightHandPinky3
												{
													OFFSET -3.014900 0.000000 0.000000
													CHANNELS 3 Xrotation Yrotation Zrotation
													JOINT RightHandPinky4
													{
														OFFSET -5.847786 0.000000 0.000000
														CHANNELS 3 Xrotation Yrotation Zrotation
														End Site
														{
															OFFSET 0.000000 0.000000 0.000000
														}
													}
												}
											}
										}
									}
								}
							}
						}
					}
				}
			}
		}
	}
	JOINT LeftUpLeg
	{
		OFFSET 13.026900 -6.336304 -1.092800
		CHANNELS 3 Xrotation Yrotation Zrotation
		JOINT LeftLeg
		{
			OFFSET 0.524474 -46.096886 9.782700
			CHANNELS 3 Xrotation Yrotation Zrotation
			JOINT LeftFoot
			{
				OFFSET -0.524474 -53.427422 -12.948200
				CHANNELS 3 Xrotation Yrotation Zrotation
				JOINT LeftToeBase
				{
					OFFSET 0.192200 -14.009700 16.364100
					CHANNELS 3 Xrotation Yrotation Zrotation
					JOINT LeftToe_End
					{
						OFFSET -1.784700 -0.561700 9.474800
						CHANNELS 3 Xrotation Yrotation Zrotation
						End Site
						{
							OFFSET 0.000000 0.000000 0.000000
						}
					}
				}
			}
		}
	}
	JOINT RightUpLeg
	{
		OFFSET -12.883000 -6.336304 -1.092800
		CHANNELS 3 Xrotation Yrotation Zrotation
		JOINT RightLeg
		{
			OFFSET -0.524587 -46.096825 9.782800
			CHANNELS 3 Xrotation Yrotation Zrotation
			JOINT RightFoot
			{
				OFFSET 0.524587 -53.427383 -12.948300
				CHANNELS 3 Xrotation Yrotation Zrotation
				JOINT RightToeBase
				{
					OFFSET -0.192200 -14.009700 16.364100
					CHANNELS 3 Xrotation Yrotation Zrotation
					JOINT RightToe_End
					{
						OFFSET 1.784700 -0.561700 9.474800
						CHANNELS 3 Xrotation Yrotation Zrotation
						End Site
						{
							OFFSET 0.000000 0.000000 0.000000
						}
					}
				}
			}
		}
	}
}
MOTION
Frames: 4
Frame Time: 0.016667
-0.086472 94.437401 -0.201278 -5.063631 -42.715744 0.286868 9.462521 7.384462 -1.700424 2.187716 0.989894 -0.914786 0.000000 0.000000 0.000000 2.202829 0.982775 -0.893562 0.084652 13.220553 4.538681 8.920923 20.138135 -4.130233 0.000001 -0.000000 -0.000000 1.117178 3.546346 -8.633310 0.000000 0.000000 0.000000 -53.487024 4.935510 -51.502980 0.000098 -106.358060 0.000105 1.988594 -7.706144 -15.869250 -6.141208 -11.690798 -6.761690 9.914113 42.595519 3.409876 -0.422810 8.108098 27.509108 0.000000 0.000000 -0.000000 0.255323 3.378226 -45.814354 5.654096 5.847756 -88.067455 2.162139 4.544818 -50.866365 -0.000001 -0.000001 -0.000001 -0.461464 3.841593 -39.722693 6.450754 5.820353 -95.892864 2.182886 4.561567 -51.127719 0.000002 -0.000001 0.000002 0.469730 4.966833 -39.799458 8.181042 5.368611 -113.503011 3.200498 5.218131 -63.022982 -0.000002 -0.000001 -0.000001 -3.762422 9.063700 -45.253838 5.342531 5.829008 -85.005311 8.716845 5.103332 -119.369167 -0.000001 0.000000 0.000001 3.036126 13.027192 -5.371406 0.000000 0.000000 0.000000 -48.713736 27.172832 83.457084 0.000004 105.988287 -0.000020 -8.345399 17.548096 8.775708 -7.341080 13.749663 7.412313 9.855751 -44.489093 -3.903266 -0.115778 -14.513075 -28.973871 -0.000000 0.000002 0.000001 -0.124367 -2.384788 45.108878 4.500598 -4.654543 88.071178 1.723230 -3.618382 50.920109 0.000001 -0.000001 0.000004 -0.761616 -2.932901 39.031055 5.133885 -4.632761 95.881649 1.739744 -3.631705 51.181374 0.000001 -0.000001 0.000002 0.154761 -4.068815 39.122671 6.509727 -4.273598 113.462857 2.549583 -4.153930 63.067330 -0.000002 -0.000001 -0.000001 -4.198870 -8.025516 44.637776 4.252916 -4.639636 85.014805 6.935983 -4.062633 119.322285 -0.000002 0.000000 -0.000000 -35.128155 6.483449 17.928813 57.657370 -6.297148 4.338442 -19.835158 -8.000510 -15.614774 -1.594214 0.000010 -0.000005 0.000000 -0.000002 -0.000000 -25.768630 -8.628924 -30.098134 57.305622 -8.678642 -7.474908 -21.898918 -6.124264 22.963678 -1.421722 -0.000013 -0.000002 -0.000000 0.000001 0.000000 
-0.085708 94.473969 -0.165957 -4.993404 -42.702561 0.231656 9.444071 7.429329 -1.708606 2.175734 1.007910 -0.914783 0.000000 0.000000 0.000000 2.190586 1.000776 -0.893561 0.049155 13.241654 4.506407 8.795708 20.178669 -4.038381 0.000000 0.000000 0.000001 1.060111 3.401041 -8.204986 0.000000 0.000000 0.000000 -53.252635 4.575409 -50.958949 -0.000001 -106.452262 -0.000013 2.080116 -7.637605 -15.690644 -6.141207 -11.690803 -6.761685 9.914120 42.595512 3.409863 -0.422810 8.108102 27.509108 0.000004 0.000001 -0.000001 0.255323 3.378222 -45.814354 5.654096 5.847752 -88.067462 2.162142 4.544818 -50.866372 0.000000 0.000002 -0.000002 -0.461465 3.841594 -39.722693 6.450754 5.820358 -95.892864 2.182887 4.561569 -51.127719 -0.000000 -0.000001 -0.000000 0.469729 4.966830 -39.799458 8.181043 5.368606 -113.503004 3.200492 5.218129 -63.022982 0.000001 0.000003 0.000000 -3.762421 9.063695 -45.253835 5.342530 5.829004 -85.005311 8.716841 5.103329 -119.369167 -0.000000 -0.000001 -0.000003 2.992699 12.851420 -5.316449 0.000000 0.000000 0.000000 -49.165665 27.692722 83.232590 0.000068 105.878048 -0.000067 -8.322238 17.530736 8.373442 -7.341078 13.749665 7.412311 9.855749 -44.489096 -3.903271 -0.115778 -14.513073 -28.973867 -0.000000 0.000003 0.000000 -0.124367 -2.384787 45.108874 4.500595 -4.654543 88.071171 1.723231 -3.618380 50.920105 0.000000 -0.000002 0.000002 -0.761615 -2.932900 39.031055 5.133889 -4.632759 95.881649 1.739745 -3.631700 51.181381 -0.000000 0.000001 -0.000002 0.154761 -4.068817 39.122675 6.509726 -4.273600 113.462857 2.549581 -4.153929 63.067337 -0.000001 -0.000002 0.000001 -4.198871 -8.025515 44.637776 4.252914 -4.639637 85.014805 6.935984 -4.062636 119.322285 -0.000001 0.000000 -0.000000 -35.174931 6.435592 18.163199 57.606157 -6.124364 4.165305 -19.844838 -8.195369 -15.633214 -1.594214 0.000008 -0.000005 -0.000000 0.000002 -0.000000 -25.859769 -8.886569 -30.129197 57.222106 -8.441320 -7.443955 -21.894129 -6.105560 22.809243 -1.421722 -0.000013 -0.000002 -0.000000 -0.000000 0.000000 
-0.090729 94.525352 -0.110155 -4.918937 -42.720436 0.181890 9.417670 7.444406 -1.722086 2.160458 1.014523 -0.917779 0.000000 0.000000 0.000000 2.175227 1.007279 -0.896828 -0.002261 13.274977 4.469523 8.607457 20.275410 -3.937012 -0.000000 0.000000 0.000000 1.001846 3.254864 -7.755000 0.000000 0.000000 0.000000 -53.008948 4.373905 -50.549287 0.000187 -106.685615 0.000198 2.320280 -7.487235 -15.637266 -6.141207 -11.690799 -6.761690 9.914117 42.595512 3.409870 -0.422811 8.108097 27.509106 0.000001 0.000003 -0.000001 0.255324 3.378226 -45.814354 5.654099 5.847753 -88.067455 2.162140 4.544819 -50.866365 0.000000 -0.000002 -0.000002 -0.461464 3.841596 -39.722693 6.450751 5.820357 -95.892864 2.182886 4.561569 -51.127726 -0.000001 -0.000000 0.000000 0.469731 4.966833 -39.799458 8.181042 5.368610 -113.503011 3.200496 5.218127 -63.022989 -0.000000 -0.000002 0.000000 -3.762419 9.063697 -45.253838 5.342530 5.829011 -85.005311 8.716844 5.103331 -119.369167 0.000003 -0.000000 -0.000000 2.949115 12.677379 -5.252450 0.000000 0.000000 0.000000 -49.612701 28.281054 83.025847 0.000074 105.788675 -0.000074 -8.265634 17.517735 7.916580 -7.341078 13.749663 7.412315 9.855758 -44.489089 -3.903264 -0.115776 -14.513075 -28.973874 0.000000 0.000001 0.000000 -0.124366 -2.384790 45.108874 4.500597 -4.654543 88.071178 1.723232 -3.618383 50.920105 -0.000000 0.000000 -0.000001 -0.761615 -2.932904 39.031058 5.133884 -4.632762 95.881649 1.739746 -3.631703 51.181377 0.000001 -0.000002 -0.000003 0.154762 -4.068821 39.122675 6.509728 -4.273598 113.462857 2.549582 -4.153931 63.067337 -0.000001 -0.000002 0.000001 -4.198869 -8.025518 44.637776 4.252915 -4.639635 85.014805 6.935984 -4.062636 119.322285 0.000001 0.000000 0.000000 -35.209543 6.442750 18.391978 57.562847 -6.211321 3.990827 -19.835165 -8.259695 -15.524854 -1.594214 0.000010 -0.000005 0.000000 -0.000002 -0.000000 -25.890493 -9.055561 -30.173590 57.122559 -8.219709 -7.320920 -21.886602 -6.084453 22.626344 -1.421722 -0.000013 -0.000002 -0.000000 -0.000001 0.000000 
-0.096026 94.594894 -0.029713 -4.837348 -42.786197 0.145704 9.381698 7.434033 -1.744720 2.140904 1.011706 -0.925597 0.000000 0.000000 0.000000 2.155734 1.004232 -0.904947 -0.072024 13.322211 4.429952 8.331899 20.440823 -3.819017 0.000001 0.000000 0.000000 0.942416 3.109344 -7.280550 0.000000 0.000000 0.000000 -52.751812 4.313171 -50.243408 -0.000068 -107.038784 -0.000080 2.688502 -7.265125 -15.676432 -6.141207 -11.690800 -6.761684 9.914119 42.595512 3.409868 -0.422807 8.108102 27.509108 0.000001 0.000001 -0.000002 0.255324 3.378222 -45.814354 5.654095 5.847754 -88.067455 2.162143 4.544819 -50.866365 0.000001 -0.000003 0.000002 -0.461465 3.841593 -39.722693 6.450752 5.820359 -95.892864 2.182886 4.561571 -51.127719 0.000000 0.000002 -0.000001 0.469730 4.966828 -39.799454 8.181043 5.368611 -113.503011 3.200495 5.218128 -63.022989 0.000001 -0.000002 0.000001 -3.762423 9.063697 -45.253835 5.342530 5.829010 -85.005311 8.716843 5.103330 -119.369167 -0.000002 0.000001 0.000001 2.906332 12.509032 -5.180292 0.000000 0.000000 0.000000 -50.050636 28.941390 82.820825 0.000083 105.714253 -0.000074 -8.193995 17.536258 7.412597 -7.341078 13.749665 7.412312 9.855756 -44.489096 -3.903270 -0.115777 -14.513080 -28.973871 0.000002 -0.000001 0.000000 -0.124367 -2.384791 45.108874 4.500592 -4.654544 88.071178 1.723230 -3.618381 50.920109 -0.000000 0.000001 -0.000001 -0.761615 -2.932903 39.031058 5.133888 -4.632759 95.881649 1.739743 -3.631704 51.181374 -0.000000 0.000000 -0.000001 0.154762 -4.068820 39.122671 6.509729 -4.273600 113.462857 2.549582 -4.153932 63.067337 0.000001 -0.000000 0.000001 -4.198869 -8.025518 44.637776 4.252917 -4.639636 85.014805 6.935985 -4.062633 119.322285 0.000002 -0.000000 0.000000 -35.215444 6.514490 18.610437 57.504100 -6.404976 3.814836 -19.829759 -8.208392 -15.349318 -1.594214 0.000008 -0.000005 -0.000000 0.000002 -0.000000 -25.869604 -9.126238 -30.217454 57.004250 -7.917912 -7.109526 -21.862210 -6.148838 22.394315 -1.421722 -0.000013 -0.000002 -0.000000 -0.000000 0.000000 
